REM MD5 2a5ab4e0ba808af55517191073e656fa
FILE "Shadow Master (USA).bin" BINARY
  TRACK 01 MODE2/2352
    INDEX 01 00:00:00
  TRACK 02 AUDIO
    INDEX 00 23:11:67
    INDEX 01 23:13:67
  TRACK 03 AUDIO
    INDEX 00 27:34:39
    INDEX 01 27:36:39
  TRACK 04 AUDIO
    INDEX 00 31:57:72
    INDEX 01 31:59:72
  TRACK 05 AUDIO
    INDEX 00 36:24:43
    INDEX 01 36:26:43
REM LEADOUT 40:55:50
